<svg width="67" height="68" viewBox="0 0 67 68" fill="none" xmlns="http://www.w3.org/2000/svg">
<path d="M1.99976 33.6251C1.99976 16.1591 16.2409 2.00012 33.8083 2.00012C37.0461 2.00012 40.1709 2.4811 43.1145 3.37512" stroke="white" stroke-width="4" stroke-linecap="round" stroke-linejoin="round"/>
<path fill-rule="evenodd" clip-rule="evenodd" d="M26.9627 40.4309C30.7433 44.1897 36.8728 44.1897 40.6534 40.4309C44.434 36.6721 60.0845 10.2501 58.7015 8.87506C57.3185 7.50007 30.7433 23.0603 26.9627 26.8191C23.182 30.5779 23.182 36.6721 26.9627 40.4309ZM33.8079 36.3751C35.3355 36.3751 36.5738 35.1438 36.5738 33.6251C36.5738 32.1063 35.3355 30.8751 33.8079 30.8751C32.2803 30.8751 31.0419 32.1063 31.0419 33.6251C31.0419 35.1438 32.2803 36.3751 33.8079 36.3751Z" fill="white"/>
<ellipse cx="6.14877" cy="50.125" rx="2.76596" ry="2.75" fill="white"/>
<ellipse cx="17.2125" cy="61.125" rx="2.76596" ry="2.75" fill="white"/>
<ellipse cx="33.8082" cy="65.25" rx="2.76596" ry="2.75" fill="white"/>
<ellipse cx="50.4039" cy="61.125" rx="2.76596" ry="2.75" fill="white"/>
<ellipse cx="60.0848" cy="50.125" rx="2.76596" ry="2.75" fill="white"/>
<ellipse cx="64.2337" cy="33.6251" rx="2.76596" ry="2.75" fill="white"/>
</svg>
