<svg width="1117" height="197" viewBox="0 0 1117 197" fill="none" xmlns="http://www.w3.org/2000/svg">
<path d="M30.8855 193H0.635451L31.1605 0.499987H61.4105L30.8855 193ZM98.514 148.725L108.689 84.1H79.814L83.939 57.975H112.539L118.864 18.65H148.564L142.239 57.975H184.864L181.014 84.1H138.389L129.039 141.025C127.939 148.542 127.389 153.125 127.389 154.775C127.389 164.492 133.806 169.35 146.639 169.35C153.606 169.35 160.389 167.7 166.989 164.4L163.139 189.7C156.356 194.283 146.547 196.575 133.714 196.575C122.164 196.575 113.089 193.917 106.489 188.6C99.889 183.283 96.589 175.675 96.589 165.775C96.589 163.942 97.2306 158.258 98.514 148.725ZM294.739 130.575H213.614L217.739 103.9H298.864L294.739 130.575ZM366.815 193H336.565L366.815 0.499987H397.34L384.965 79.15L476.815 0.499987H515.865L411.365 91.25L500.465 193H462.79L381.39 100.6L366.815 193ZM634.611 84.1H583.736C583.186 87.4 582.453 91.525 581.536 96.475C580.62 101.242 580.161 103.717 580.161 103.9C578.695 112.15 577.411 118.383 576.311 122.6C574.478 131.033 572.736 137.358 571.086 141.575C569.436 146.158 567.236 151.658 564.486 158.075C562.103 163.758 559.445 168.433 556.511 172.1C553.761 175.583 549.911 179.433 544.961 183.65C537.261 190.25 526.72 193.55 513.336 193.55C509.486 193.55 506.37 193.183 503.986 192.45L508.111 166.875C509.578 167.425 511.595 167.7 514.161 167.7C523.878 167.7 531.578 162.658 537.261 152.575C542.945 142.492 547.803 125.625 551.836 101.975L559.261 57.975H668.436L646.986 193H617.286L634.611 84.1ZM822.757 169.9C825.507 169.9 827.615 169.533 829.082 168.8L825.782 191.625C821.565 194.192 816.065 195.475 809.282 195.475C794.065 195.475 785.173 189.242 782.607 176.775C768.673 189.975 752.173 196.575 733.107 196.575C718.44 196.575 706.615 192.633 697.632 184.75C688.648 176.867 684.157 166.783 684.157 154.5C684.157 139.467 689.657 127.642 700.657 119.025C711.473 110.592 724.948 106.375 741.082 106.375C758.865 106.375 774.723 110.317 788.657 118.2C789.757 112.7 790.307 108.3 790.307 105C790.307 88.3167 777.84 79.975 752.907 79.975C736.407 79.975 722.015 83.275 709.732 89.875L714.132 63.75C726.415 57.5167 742.365 54.4 761.982 54.4C778.848 54.4 792.69 58.1583 803.507 65.675C814.323 73.1917 819.732 84.7417 819.732 100.325C819.732 102.342 819.182 107.475 818.082 115.725L812.307 150.65C811.757 153.583 811.482 156.517 811.482 159.45C811.482 166.417 815.24 169.9 822.757 169.9ZM782.332 154.5L785.082 139.1C773.715 132.133 760.973 128.65 746.857 128.65C736.59 128.65 728.432 130.575 722.382 134.425C716.515 138.275 713.582 143.867 713.582 151.2C713.582 157.433 716.148 162.292 721.282 165.775C726.415 169.258 733.015 171 741.082 171C749.332 171 757.215 169.442 764.732 166.325C772.248 163.025 778.115 159.083 782.332 154.5ZM923.593 196.575C903.06 196.575 886.377 190.525 873.543 178.425C860.527 165.958 854.018 150.1 854.018 130.85C854.018 109.217 861.627 91.0667 876.843 76.4C892.427 61.7333 911.31 54.4 933.493 54.4C949.993 54.4 964.752 58.1583 977.768 65.675L973.643 90.975C961.91 84.0083 949.352 80.525 935.968 80.525C921.118 80.525 908.652 85.2 898.568 94.55C888.668 103.717 883.718 115.358 883.718 129.475C883.718 142.125 888.21 152.117 897.193 159.45C906.177 166.783 917.36 170.45 930.743 170.45C942.843 170.45 954.485 167.608 965.668 161.925L961.543 188.325C950.177 193.825 937.527 196.575 923.593 196.575ZM1062.44 196.575C1041.9 196.575 1025.22 190.525 1012.39 178.425C999.37 165.958 992.861 150.1 992.861 130.85C992.861 109.217 1000.47 91.0667 1015.69 76.4C1031.27 61.7333 1050.15 54.4 1072.34 54.4C1088.84 54.4 1103.59 58.1583 1116.61 65.675L1112.49 90.975C1100.75 84.0083 1088.19 80.525 1074.81 80.525C1059.96 80.525 1047.49 85.2 1037.41 94.55C1027.51 103.717 1022.56 115.358 1022.56 129.475C1022.56 142.125 1027.05 152.117 1036.04 159.45C1045.02 166.783 1056.2 170.45 1069.59 170.45C1081.69 170.45 1093.33 167.608 1104.51 161.925L1100.39 188.325C1089.02 193.825 1076.37 196.575 1062.44 196.575Z" fill="black"/>
</svg>
