<svg width="540" height="451" viewBox="0 0 540 451" fill="none" xmlns="http://www.w3.org/2000/svg">
<path d="M476.87 400.889H428.195C414.333 400.889 403.095 389.68 403.095 375.833C403.095 361.989 414.333 350.778 428.195 350.778H444.926C458.787 350.778 470.025 339.569 470.025 325.723C470.025 311.876 458.787 300.667 444.926 300.667H344.534C330.673 300.667 319.435 289.458 319.435 275.611C319.435 261.765 330.673 250.556 344.534 250.556H513.379C527.239 250.556 538.476 239.347 538.476 225.5C538.476 211.654 527.239 200.445 513.379 200.445H393.21C379.349 200.445 368.113 189.234 368.113 175.389C368.113 161.543 379.349 150.334 393.21 150.334H438.843C452.705 150.334 463.941 139.124 463.941 125.278C463.941 111.432 452.705 100.223 438.843 100.223H338.451C324.591 100.223 313.353 89.0132 313.353 75.1667C313.353 61.3202 324.591 50.1111 338.451 50.1111H353.662C367.523 50.1111 378.761 38.902 378.761 25.0556C378.761 11.2105 367.523 0 353.662 0H201.55C187.689 0 176.452 11.2105 176.452 25.0556C176.452 38.902 187.689 50.1111 201.55 50.1111H210.677C224.538 50.1111 235.775 61.3205 235.775 75.1667C235.775 89.0128 224.538 100.223 210.677 100.223H193.944C180.083 100.223 168.846 111.432 168.846 125.278C168.846 139.124 180.083 150.334 193.944 150.334H190.902C204.762 150.334 216 161.543 216 175.389C216 189.234 204.762 200.445 190.902 200.445H25.0994C11.2377 200.445 0 211.654 0 225.5C0 239.347 11.2377 250.556 25.0994 250.556H67.688C81.5483 250.556 92.786 261.765 92.786 275.611C92.786 289.458 81.5483 300.667 67.688 300.667H61.6039C47.7422 300.667 36.5045 311.876 36.5045 325.723C36.5045 339.569 47.7422 350.778 61.6039 350.778H175.686C189.547 350.778 200.784 361.989 200.784 375.833C200.784 389.68 189.547 400.889 175.686 400.889H117.883C104.021 400.889 92.7836 412.098 92.7836 425.945C92.7836 439.791 104.021 451 117.883 451H476.848C490.71 451 501.948 439.791 501.948 425.945C501.948 412.098 490.71 400.889 476.849 400.889H476.87Z" fill="#17A2B8" fill-opacity="0.85"/>
<path d="M74.9439 199.856L30.6675 253.462L34.847 256.73L78.9947 203.54L74.9439 199.856Z" fill="#9DB6C9"/>
<path d="M34.8435 258.121C34.5443 258.121 34.2436 258.024 33.9888 257.827L29.8083 254.579C29.5118 254.348 29.3211 254.007 29.279 253.633C29.2383 253.259 29.35 252.885 29.5894 252.594L73.8693 198.981C74.1119 198.687 74.4654 198.506 74.8451 198.479C75.2248 198.452 75.6003 198.582 75.8822 198.838L79.9319 202.522C80.4831 203.022 80.5412 203.867 80.0666 204.44L35.9189 257.616C35.6443 257.946 35.2469 258.118 34.8453 258.118L34.8435 258.121ZM32.6529 253.262L34.6344 254.801L77.0734 203.687L75.0894 201.882L32.6539 253.264L32.6529 253.262Z" fill="#305D8A"/>
<path d="M31.6245 272.025L57.8396 322.952H63.4146L36.0685 269.592L31.6245 272.025Z" fill="#9DB6C9"/>
<path d="M63.4146 324.343H57.8406C57.3183 324.343 56.8405 324.051 56.6007 323.586L30.3853 272.663C30.0411 271.993 30.2927 271.169 30.9542 270.806L35.3975 268.37C35.7295 268.191 36.1148 268.15 36.4781 268.26C36.8372 268.37 37.1365 268.622 37.3095 268.956L64.6556 322.316C64.8762 322.748 64.8571 323.264 64.6037 323.677C64.3511 324.09 63.9004 324.343 63.4146 324.343V324.343ZM58.6911 321.558H61.1352L35.4818 271.501L33.4842 272.595L58.6911 321.561V321.558Z" fill="#305D8A"/>
<path d="M75.438 158.603C78.4291 161.594 78.4291 166.441 75.438 169.43C72.4438 172.42 67.5912 172.42 64.5977 169.43C61.6063 166.441 61.6063 161.594 64.5977 158.603C67.5912 155.614 72.4438 155.614 75.438 158.603Z" fill="#9DB6C9"/>
<path d="M70.0161 173.064C67.5964 173.064 65.3212 172.124 63.6104 170.415C60.0802 166.887 60.0802 161.148 63.6104 157.619C65.3212 155.91 67.5964 154.97 70.0161 154.97C72.4357 154.97 74.711 155.91 76.4214 157.619C79.9516 161.148 79.9516 166.887 76.4214 170.415C74.7106 172.124 72.4354 173.064 70.0161 173.064ZM70.0161 157.754C68.3408 157.754 66.7664 158.405 65.5808 159.588C63.1381 162.03 63.1381 166.005 65.5808 168.447C66.7661 169.629 68.3408 170.28 70.0161 170.28C71.691 170.28 73.2657 169.629 74.451 168.447C76.894 166.005 76.894 162.03 74.451 159.588C73.2657 158.405 71.691 157.754 70.0161 157.754Z" fill="#305D8A"/>
<path d="M117.967 192.893C123.226 198.147 123.226 206.664 117.967 211.918C112.709 217.169 104.181 217.171 98.9212 211.918C93.6629 206.664 93.6643 198.145 98.9212 192.893C104.181 187.64 112.709 187.64 117.967 192.893Z" fill="white"/>
<path d="M108.446 217.247C104.477 217.247 100.744 215.703 97.9379 212.9C92.1447 207.112 92.1447 197.694 97.9379 191.906C100.745 189.103 104.477 187.559 108.446 187.559C112.417 187.559 116.149 189.103 118.955 191.906C124.748 197.694 124.748 207.112 118.955 212.9C116.149 215.703 112.416 217.247 108.446 217.247ZM108.446 190.343C105.221 190.343 102.189 191.597 99.9083 193.874C95.2026 198.576 95.2026 206.23 99.9083 210.931C102.189 213.208 105.221 214.463 108.446 214.463C111.672 214.463 114.703 213.209 116.984 210.931C121.69 206.23 121.69 198.576 116.984 193.874C114.705 191.597 111.673 190.343 108.446 190.343Z" fill="#305D8A"/>
<path d="M78.3946 152.688L58.6876 172.373L65.5843 179.262L85.2913 159.577L78.3946 152.688Z" fill="#9DB6C9"/>
<path d="M65.5826 180.667C65.2263 180.667 64.8696 180.531 64.5974 180.259L57.7007 173.37C57.1564 172.826 57.1564 171.945 57.7007 171.402L77.4085 151.715C77.6698 151.455 78.0237 151.308 78.3937 151.308C78.764 151.308 79.1175 151.455 79.3789 151.715L86.2756 158.606C86.8199 159.15 86.8199 160.03 86.2756 160.574L66.5678 180.259C66.2957 180.531 65.9393 180.667 65.5826 180.667ZM60.6563 172.386L65.5826 177.307L83.32 159.59L78.3937 154.668L60.6563 172.386Z" fill="#305D8A"/>
<path d="M130.617 189.118L95.1419 224.551L58.6851 180.257L86.2748 152.697L130.617 189.118Z" fill="#9DB6C9"/>
<path d="M95.1421 225.513H95.0742C94.6823 225.513 94.3162 225.525 94.066 225.22L57.6092 181.034C57.153 180.481 57.1926 179.728 57.7004 179.221L85.2901 151.687C85.7989 151.181 86.6101 151.155 87.1599 151.609L131.502 188.033C131.806 188.283 131.991 188.652 132.01 189.043C132.029 189.437 131.881 189.821 131.603 190.098L96.1314 225.319C95.8701 225.582 95.5148 225.513 95.1459 225.513H95.1421ZM60.5634 180.35L95.243 222.482L128.544 189.218L86.3661 154.576L60.5648 180.349L60.5634 180.35Z" fill="#305D8A"/>
<g opacity="0.2">
<path opacity="0.2" d="M111.895 205.849L128.484 189.281L86.3688 154.578L73.4648 167.461L111.895 205.849Z" fill="#9DB6C9"/>
</g>
<g opacity="0.2">
<path opacity="0.2" d="M78.3902 154.668L69.5228 163.528L71.4931 165.496L80.3604 156.636L78.3902 154.668Z" fill="#9DB6C9"/>
</g>
<g opacity="0.2">
<path opacity="0.2" d="M71.1681 157.95C71.1681 157.95 67.1413 156.86 64.3503 161.055C64.3503 161.055 66.4871 160.656 67.5551 161.559L71.1681 157.95Z" fill="#9DB6C9"/>
</g>
<g opacity="0.2">
<path opacity="0.2" d="M106.842 214.668L108.94 214.709L119.777 203.881L120.762 202.897L120.679 201.013L106.967 214.709" fill="#9DB6C9"/>
</g>
<path d="M41.4208 262.118C41.4208 267.583 36.9858 272.012 31.5152 272.012C26.0446 272.012 21.6096 267.583 21.6096 262.118C21.6096 256.652 26.0446 252.222 31.5152 252.222C36.9858 252.222 41.4208 256.652 41.4208 262.118Z" fill="#9DB6C9"/>
<path d="M31.5131 273.416C25.2831 273.416 20.2141 268.353 20.2141 262.13C20.2141 255.906 25.2831 250.842 31.5131 250.842C37.743 250.842 42.8121 255.906 42.8121 262.13C42.8121 268.353 37.743 273.416 31.5131 273.416ZM31.5131 253.626C26.8196 253.626 23.0013 257.44 23.0013 262.13C23.0013 266.818 26.8199 270.632 31.5131 270.632C36.2063 270.632 40.0252 266.818 40.0252 262.13C40.0252 257.44 36.2066 253.626 31.5131 253.626Z" fill="#305D8A"/>
<g opacity="0.2">
<path opacity="0.2" d="M31.3634 253.636V270.641C35.544 270.641 39.8752 266.835 39.8752 262.14C39.8756 257.442 35.544 253.636 31.3634 253.636Z" fill="#9DB6C9"/>
</g>
<path d="M36.0685 262.118C36.0685 264.629 34.0299 266.665 31.5152 266.665C29.0005 266.665 26.9619 264.629 26.9619 262.118C26.9619 259.605 29.0005 257.568 31.5152 257.568C34.0299 257.568 36.0685 259.605 36.0685 262.118Z" fill="#9DB6C9"/>
<path d="M31.5131 268.062C28.2335 268.062 25.5664 265.398 25.5664 262.123C25.5664 258.847 28.2339 256.182 31.5131 256.182C34.7927 256.182 37.4601 258.847 37.4601 262.123C37.4601 265.398 34.7927 268.062 31.5131 268.062ZM31.5131 258.966C29.7713 258.966 28.3532 260.382 28.3532 262.123C28.3532 263.864 29.7713 265.279 31.5131 265.279C33.2549 265.279 34.673 263.864 34.673 262.123C34.673 260.382 33.2549 258.966 31.5131 258.966Z" fill="#305D8A"/>
<path d="M90.757 352.187C91.0946 350.468 91.2822 348.693 91.2822 346.875C91.2822 331.743 79.0018 319.476 63.8529 319.476C48.704 319.476 36.4226 331.743 36.4226 346.875C36.4226 348.693 36.6091 350.468 36.9477 352.187H90.756H90.757Z" fill="#9DB6C9"/>
<path d="M90.7572 353.577H36.9489C36.2835 353.577 35.7107 353.107 35.5813 352.455C35.2152 350.598 35.03 348.719 35.03 346.873C35.03 330.997 47.9608 318.082 63.8541 318.082C79.7474 318.082 92.6768 330.997 92.6768 346.873C92.6768 348.712 92.4916 350.589 92.1259 352.453C91.9978 353.105 91.425 353.577 90.7579 353.577H90.7572ZM38.1182 350.793H89.5844C89.7859 349.479 89.8879 348.164 89.8879 346.873C89.8879 332.533 78.2079 320.866 63.852 320.866C49.4951 320.866 37.8151 332.533 37.8151 346.873C37.8151 348.168 37.9171 349.483 38.1172 350.793H38.1182Z" fill="#305D8A"/>
<g opacity="0.2">
<path opacity="0.2" d="M63.8531 319.476C59.2275 319.476 54.8771 320.631 51.0532 322.65C52.5013 322.415 53.9778 322.26 55.4924 322.26C70.6413 322.26 82.9213 334.526 82.9213 349.659C82.9213 350.513 82.8725 351.354 82.7936 352.187H90.7573C91.0948 350.468 91.2824 348.693 91.2824 346.875C91.2824 331.743 79.0021 319.476 63.8531 319.476Z" fill="#9DB6C9"/>
</g>
<g opacity="0.2">
<path opacity="0.2" d="M75.7234 203.012L35.6195 251.62L36.8236 252.246L76.5934 204.173L75.7234 203.012Z" fill="#9DB6C9"/>
</g>
<g opacity="0.2">
<path opacity="0.2" d="M36.0093 272.477L34.9061 272.964L58.4799 318.781H59.757L36.0093 272.477Z" fill="#9DB6C9"/>
</g>
<path d="M473.738 205.64C471.273 210.508 465.829 212.714 461.579 210.565C457.333 208.418 455.886 202.729 458.353 197.862C460.819 192.992 466.263 190.787 470.511 192.935C474.76 195.083 476.205 200.77 473.738 205.64Z" fill="#AFDDB5"/>
<path d="M465.038 212.777C463.587 212.777 462.205 212.451 460.927 211.805C458.509 210.581 456.786 208.37 456.076 205.574C455.383 202.848 455.742 199.885 457.087 197.23C459.09 193.276 462.985 190.719 467.009 190.719C468.46 190.719 469.842 191.046 471.118 191.691C476.045 194.181 477.769 200.719 474.96 206.265C472.956 210.221 469.062 212.777 465.038 212.777ZM467.009 193.502C464.026 193.502 461.108 195.46 459.574 198.487C458.533 200.541 458.25 202.815 458.777 204.888C459.286 206.892 460.497 208.466 462.186 209.32C463.069 209.767 464.029 209.993 465.038 209.993C468.021 209.993 470.939 208.037 472.472 205.01C474.589 200.832 473.415 195.973 469.859 194.176C468.977 193.729 468.017 193.502 467.009 193.502Z" fill="#305D8A"/>
<g opacity="0.38">
<path opacity="0.38" d="M470.502 192.934C470.328 192.846 470.148 192.777 469.972 192.703C471.093 195.282 471.041 198.52 469.55 201.463C467.185 206.131 462.086 208.34 457.923 206.619C458.657 208.307 459.891 209.716 461.571 210.564C465.821 212.713 471.264 210.507 473.73 205.639C476.196 200.769 474.752 195.082 470.502 192.934Z" fill="#9DB6C9"/>
</g>
<path d="M466.117 209.811C471.759 220.55 468.771 233.218 459.443 238.108C450.113 242.997 437.98 238.254 432.34 227.515C426.697 216.778 429.684 204.11 439.013 199.219C448.342 194.33 460.475 199.073 466.117 209.811Z" fill="#AFDDB5"/>
<path d="M451.571 241.435C443.391 241.435 435.37 236.228 431.138 228.171C428.253 222.681 427.401 216.535 428.739 210.864C430.093 205.122 433.523 200.551 438.398 197.995C441.038 196.611 443.915 195.91 446.949 195.91C455.129 195.91 463.15 201.116 467.384 209.173C470.267 214.663 471.121 220.811 469.783 226.48C468.427 232.223 464.998 236.794 460.124 239.35C457.484 240.733 454.606 241.435 451.571 241.435ZM446.949 198.694C444.371 198.694 441.929 199.29 439.693 200.461C435.544 202.637 432.617 206.558 431.451 211.504C430.268 216.521 431.033 221.982 433.606 226.878C437.362 234.03 444.414 238.651 451.57 238.651C454.149 238.651 456.592 238.056 458.828 236.884C462.976 234.711 465.903 230.789 467.069 225.843C468.253 220.825 467.488 215.364 464.915 210.468C461.158 203.316 454.106 198.694 446.949 198.694Z" fill="#305D8A"/>
<g opacity="0.38">
<path opacity="0.38" d="M466.117 209.811C460.475 199.072 448.342 194.33 439.013 199.219C438.66 199.404 438.337 199.62 438.002 199.827C445.918 200.522 453.367 206.616 456.254 215.666C459.29 225.187 456.319 234.965 449.569 239.905C452.944 240.272 456.347 239.731 459.443 238.108C468.77 233.218 471.759 220.55 466.117 209.811Z" fill="#9DB6C9"/>
</g>
<path d="M430.884 273.129C437.084 275.211 443.254 273.503 444.665 269.313C446.075 265.123 442.192 260.038 435.991 257.956C429.79 255.873 423.62 257.581 422.21 261.771C420.799 265.961 424.683 271.046 430.884 273.129Z" fill="#AFDDB5"/>
<path d="M436.084 275.397C434.199 275.397 432.281 275.073 430.386 274.437C423.348 272.073 419.153 266.311 420.834 261.317C422.007 257.83 425.78 255.665 430.68 255.665C432.565 255.665 434.483 255.988 436.379 256.624C443.416 258.989 447.611 264.751 445.93 269.745C444.757 273.231 440.984 275.397 436.084 275.397ZM430.679 258.449C427.07 258.449 424.244 259.922 423.476 262.203C422.332 265.601 425.903 269.995 431.272 271.798C432.882 272.339 434.5 272.613 436.084 272.613C439.693 272.613 442.52 271.14 443.287 268.859C444.432 265.461 440.86 261.067 435.491 259.264C433.882 258.723 432.263 258.449 430.679 258.449Z" fill="#305D8A"/>
<g opacity="0.38">
<path opacity="0.38" d="M435.945 257.947C429.745 255.864 423.575 257.573 422.166 261.762C421.976 262.325 421.889 262.906 421.884 263.492C424.541 262.384 428.145 262.298 431.765 263.515C437.132 265.318 440.756 269.37 440.72 273.143C442.615 272.353 444.033 271.047 444.619 269.304C446.029 265.115 442.146 260.029 435.945 257.947Z" fill="#9DB6C9"/>
</g>
<path d="M508.504 230.728C511.34 235.025 508.485 241.906 502.124 246.097C495.765 250.288 488.308 250.2 485.471 245.902C482.635 241.606 485.49 234.723 491.849 230.533C498.211 226.343 505.665 226.429 508.504 230.728Z" fill="#AFDDB5"/>
<path d="M492.635 250.577C488.933 250.577 485.979 249.189 484.315 246.671C481.059 241.737 484.098 233.978 491.089 229.373C494.336 227.235 497.982 226.056 501.355 226.056C505.057 226.056 508.011 227.444 509.675 229.962C512.931 234.894 509.891 242.653 502.899 247.26C499.654 249.399 496.008 250.577 492.635 250.577ZM501.355 228.84C498.522 228.84 495.42 229.854 492.624 231.697C487.012 235.394 484.272 241.549 486.642 245.137C487.772 246.85 489.901 247.793 492.635 247.793C495.47 247.793 498.57 246.778 501.365 244.936C506.977 241.238 509.716 235.083 507.348 231.496C506.217 229.783 504.089 228.84 501.355 228.84Z" fill="#305D8A"/>
<g opacity="0.38">
<path opacity="0.38" d="M508.504 230.728C507.857 229.749 506.963 229 505.905 228.459C507.42 233.302 502.953 239.14 495.818 241.57C491.649 242.991 487.49 242.927 484.398 241.683C484.325 243.219 484.656 244.668 485.47 245.903C488.307 250.199 495.765 250.288 502.124 246.097C508.485 241.906 511.34 235.025 508.504 230.728Z" fill="#9DB6C9"/>
</g>
<path d="M466.152 299.282C483.083 299.282 496.809 282.612 496.809 262.049C496.809 241.485 483.083 224.815 466.152 224.815C449.22 224.815 435.495 241.485 435.495 262.049C435.495 282.612 449.22 299.282 466.152 299.282Z" fill="#AFDDB5"/>
<path d="M466.152 300.669C448.478 300.669 434.101 283.341 434.101 262.042C434.101 240.742 448.478 223.414 466.152 223.414C483.826 223.414 498.203 240.741 498.203 262.042C498.203 283.342 483.825 300.669 466.152 300.669ZM466.152 226.198C450.016 226.198 436.888 242.278 436.888 262.042C436.888 281.805 450.016 297.885 466.152 297.885C482.287 297.885 495.415 281.805 495.415 262.042C495.415 242.278 482.287 226.198 466.152 226.198Z" fill="#305D8A"/>
<g opacity="0.38">
<path opacity="0.38" d="M466.152 224.818C464.002 224.818 461.906 225.09 459.881 225.601C473.805 229.117 484.267 244.099 484.267 262.053C484.267 280.006 473.805 294.99 459.881 298.504C461.906 299.016 464.002 299.287 466.152 299.287C483.084 299.287 496.809 282.616 496.809 262.053C496.809 241.491 483.084 224.82 466.152 224.82V224.818Z" fill="#9DB6C9"/>
</g>
<path d="M502.379 344.296C502.379 348.654 498.841 352.187 494.478 352.187H439.212C434.849 352.187 431.311 348.654 431.311 344.296L424.343 293.262C424.343 288.904 427.882 285.371 432.244 285.371H501.445C505.807 285.371 509.346 288.904 509.346 293.262L502.378 344.296H502.379Z" fill="#E4C6AA"/>
<path d="M494.479 353.577H439.213C434.12 353.577 429.971 349.467 429.918 344.392L422.963 293.448C422.955 293.387 422.951 293.323 422.951 293.26C422.951 288.141 427.12 283.978 432.245 283.978H501.446C506.571 283.978 510.74 288.141 510.74 293.26C510.74 293.323 510.736 293.387 510.728 293.448L503.773 344.392C503.72 349.466 499.57 353.577 494.478 353.577H494.479ZM425.738 293.171L432.693 344.105C432.701 344.166 432.705 344.23 432.705 344.292C432.705 347.876 435.625 350.791 439.213 350.791H494.479C498.068 350.791 500.987 347.875 500.987 344.292C500.987 344.23 500.991 344.166 500.999 344.105L507.954 293.171C507.905 289.629 505.005 286.762 501.447 286.762H432.246C428.688 286.761 425.788 289.629 425.739 293.171H425.738Z" fill="#305D8A"/>
<g opacity="0.38">
<path opacity="0.38" d="M501.439 285.374H494.472C498.835 285.374 502.373 288.907 502.373 293.265L495.406 344.299C495.406 348.657 491.868 352.19 487.505 352.19H494.472C498.835 352.19 502.373 348.657 502.373 344.299L509.34 293.265C509.34 288.907 505.802 285.374 501.439 285.374Z" fill="#AA9E80"/>
</g>
<path d="M409.01 333.172C409.01 337.53 405.471 341.063 401.109 341.063H145.176C140.814 341.063 137.275 337.53 137.275 333.172V161.037C137.275 156.678 140.814 153.146 145.176 153.146H401.109C405.471 153.146 409.01 156.678 409.01 161.037V333.172Z" fill="white"/>
<path d="M401.11 342.454H145.178C140.053 342.454 135.884 338.289 135.884 333.17V161.035C135.884 155.915 140.053 151.752 145.178 151.752H401.11C406.235 151.752 410.405 155.915 410.405 161.035V333.17C410.405 338.289 406.235 342.453 401.111 342.453L401.11 342.454ZM145.178 154.536C141.589 154.536 138.67 157.452 138.67 161.035V333.171C138.67 336.754 141.589 339.67 145.178 339.67H401.11C404.699 339.67 407.618 336.754 407.618 333.171V161.035C407.618 157.452 404.698 154.536 401.11 154.536H145.178Z" fill="#305D8A"/>
<g opacity="0.2">
<path opacity="0.2" d="M399.718 153.132H397.168C400.631 153.132 403.439 155.936 403.439 159.396V329.911H407.62V161.022C407.619 156.664 404.081 153.131 399.718 153.131V153.132Z" fill="#9DB6C9"/>
</g>
<g opacity="0.2">
<path opacity="0.2" d="M392.271 291.388C392.271 295.746 388.733 299.279 384.37 299.279H161.884C157.521 299.279 153.983 295.746 153.983 291.388V172.147C153.983 167.788 157.521 164.256 161.884 164.256H384.37C388.733 164.256 392.271 167.789 392.271 172.147V291.388Z" fill="#9DB6C9"/>
</g>
<path d="M392.271 330.356C392.271 334.714 388.733 338.247 384.37 338.247H161.884C157.521 338.247 153.983 334.714 153.983 330.356V176.318C153.983 171.96 157.521 168.427 161.884 168.427H384.37C388.733 168.427 392.271 171.96 392.271 176.318V330.356Z" fill="#EFEFEF"/>
<path d="M384.371 339.673H161.886C156.76 339.673 152.591 335.509 152.591 330.39V176.351C152.591 171.232 156.76 167.069 161.886 167.069H384.371C389.496 167.069 393.666 171.232 393.666 176.351V330.39C393.666 335.509 389.496 339.673 384.371 339.673V339.673ZM161.886 169.852C158.297 169.852 155.378 172.768 155.378 176.351V330.389C155.378 333.973 158.297 336.888 161.886 336.888H384.371C387.96 336.888 390.878 333.972 390.878 330.389V176.351C390.878 172.768 387.959 169.852 384.371 169.852H161.886Z" fill="#305D8A"/>
<g opacity="0.41">
<path opacity="0.41" d="M384.023 169.835H233.592L390.882 279.802V177.726C390.882 171.809 387.893 169.835 384.023 169.835H384.023Z" fill="white"/>
</g>
<path d="M455.956 331.295H91.7002C87.3373 331.295 85.3356 335.011 86.5863 339.186C87.0025 340.578 87.8548 343.809 88.2139 345.216C89.2931 349.438 92.9116 352.175 97.2746 352.175H450.394C454.757 352.175 458.375 349.438 459.454 345.216C459.814 343.809 460.665 340.578 461.082 339.186C462.332 335.012 460.331 331.295 455.968 331.295H455.956Z" fill="white"/>
<path d="M450.387 353.577H97.2683C92.2658 353.577 88.0814 350.36 86.8578 345.571C86.5122 344.219 85.6575 340.973 85.2452 339.595C84.4461 336.932 84.7813 334.34 86.1635 332.487C87.4007 330.828 89.3645 329.914 91.694 329.914H455.949C458.279 329.914 460.242 330.828 461.48 332.487C462.863 334.34 463.197 336.932 462.398 339.596C461.986 340.973 461.131 344.22 460.786 345.571C459.563 350.36 455.378 353.577 450.376 353.577H450.387ZM91.7003 332.698C90.2522 332.698 89.1132 333.199 88.4043 334.15C87.5538 335.29 87.3784 336.985 87.9213 338.797C88.35 340.232 89.2033 343.469 89.5639 344.883C90.4826 348.473 93.5092 350.793 97.2746 350.793H450.394C454.159 350.793 457.186 348.473 458.104 344.883C458.465 343.469 459.318 340.232 459.747 338.798C460.29 336.985 460.114 335.29 459.264 334.15C458.555 333.2 457.416 332.698 455.968 332.698H91.7125H91.7003Z" fill="#305D8A"/>
<g opacity="0.2">
<path opacity="0.2" d="M297.022 331.295H234.827V335.932C234.827 340.29 238.365 343.823 242.728 343.823H303.57C307.932 343.823 311.47 340.29 311.47 335.932V331.295H297.022Z" fill="#9DB6C9"/>
</g>
<path d="M297.022 331.295H236.282C236.744 335.213 240.076 338.255 244.123 338.255H302.177C306.224 338.255 309.555 335.213 310.018 331.295H297.023H297.022Z" fill="#9DB6C9"/>
<path d="M302.173 339.673H244.119C239.412 339.673 235.445 336.152 234.894 331.484C234.847 331.089 234.971 330.693 235.236 330.396C235.5 330.099 235.88 329.928 236.278 329.928H310.012C310.41 329.928 310.789 330.098 311.053 330.396C311.319 330.693 311.443 331.089 311.396 331.484C310.845 336.152 306.878 339.673 302.171 339.673H302.173ZM238.043 332.713C238.983 335.175 241.37 336.889 244.117 336.889H302.171C304.919 336.889 307.306 335.175 308.246 332.713H238.044H238.043Z" fill="#305D8A"/>
<g opacity="0.2">
<path opacity="0.2" d="M89.4277 346.625C91.0988 349.225 93.9716 350.801 97.2783 350.801H450.397C453.704 350.801 456.577 349.225 458.248 346.625H89.4344H89.4277Z" fill="#9DB6C9"/>
</g>
<g opacity="0.33">
<path opacity="0.33" d="M384.371 168.441H161.885C157.523 168.441 153.984 171.974 153.984 176.332V180.508C153.984 176.15 157.523 172.617 161.885 172.617H384.371C388.734 172.617 392.272 176.15 392.272 180.508V176.332C392.272 171.974 388.734 168.441 384.371 168.441Z" fill="#9DB6C9"/>
</g>
<g opacity="0.2">
<path opacity="0.2" d="M403.428 327.123H137.268V329.908H403.428V327.123Z" fill="#9DB6C9"/>
</g>
<path d="M273.845 161.831C274.711 161.831 275.412 161.13 275.412 160.265C275.412 159.4 274.711 158.699 273.845 158.699C272.979 158.699 272.278 159.4 272.278 160.265C272.278 161.13 272.979 161.831 273.845 161.831Z" fill="#305D8A"/>
<g opacity="0.2">
<path opacity="0.2" d="M397.839 153.201C398.07 153.174 398.295 153.131 398.534 153.131H397.839V153.201Z" fill="#9DB6C9"/>
</g>
<path d="M538.606 353.577H531.639C530.869 353.577 530.245 352.954 530.245 352.185C530.245 351.416 530.869 350.793 531.639 350.793H538.606C539.377 350.793 540 351.416 540 352.185C540 352.954 539.377 353.577 538.606 353.577ZM520.491 353.577H509.343C508.573 353.577 507.95 352.954 507.95 352.185C507.95 351.416 508.573 350.793 509.343 350.793H520.491C521.261 350.793 521.884 351.416 521.884 352.185C521.884 352.954 521.261 353.577 520.491 353.577Z" fill="#305D8A"/>
<path d="M509.339 353.577H53.6634C52.8933 353.577 52.27 352.954 52.27 352.185C52.27 351.416 52.8933 350.793 53.6634 350.793H509.339C510.11 350.793 510.733 351.416 510.733 352.185C510.733 352.954 510.11 353.577 509.339 353.577Z" fill="#305D8A"/>
<path d="M52.2784 353.577C51.5096 353.577 50.878 352.954 50.878 352.185C50.878 351.416 51.4943 350.793 52.2648 350.793H52.2784C53.0485 350.793 53.6718 351.416 53.6718 352.185C53.6718 352.954 53.0485 353.577 52.2784 353.577ZM41.1169 353.577H29.9686C29.1984 353.577 28.5752 352.954 28.5752 352.185C28.5752 351.416 29.1984 350.793 29.9686 350.793H41.1169C41.887 350.793 42.5103 351.416 42.5103 352.185C42.5103 352.954 41.887 353.577 41.1169 353.577ZM18.821 353.577H7.6727C6.90257 353.577 6.2793 352.954 6.2793 352.185C6.2793 351.416 6.90257 350.793 7.6727 350.793H18.821C19.5911 350.793 20.2144 351.416 20.2144 352.185C20.2144 352.954 19.5908 353.577 18.821 353.577Z" fill="#305D8A"/>
<path d="M477.984 208.115C477.786 208.115 477.583 208.073 477.391 207.982L469.789 204.401C469.094 204.074 468.796 203.245 469.123 202.549C469.449 201.855 470.282 201.552 470.978 201.884L478.58 205.464C479.275 205.792 479.574 206.621 479.245 207.317C479.009 207.82 478.507 208.115 477.984 208.115Z" fill="#305D8A"/>
<path d="M466.047 193.574C465.329 193.574 464.72 193.025 464.661 192.298L464.247 187.351C464.182 186.586 464.752 185.913 465.519 185.849C466.302 185.758 466.959 186.354 467.022 187.12L467.436 192.067C467.501 192.832 466.931 193.505 466.164 193.569C466.124 193.573 466.085 193.574 466.047 193.574Z" fill="#305D8A"/>
<path d="M461.454 198.684C461.217 198.684 460.979 198.624 460.758 198.498L454.304 194.779C453.637 194.394 453.409 193.543 453.794 192.877C454.177 192.212 455.027 191.984 455.698 192.367L462.152 196.086C462.819 196.471 463.047 197.322 462.662 197.988C462.404 198.434 461.936 198.684 461.454 198.684Z" fill="#305D8A"/>
<path d="M474.922 198.684C474.245 198.684 473.652 198.192 473.546 197.503C473.429 196.743 473.951 196.033 474.712 195.917L477.76 195.449C478.521 195.331 479.23 195.854 479.348 196.614C479.465 197.374 478.943 198.084 478.182 198.201L475.134 198.668C475.063 198.679 474.991 198.684 474.922 198.684Z" fill="#305D8A"/>
<path d="M477.984 252.663C477.658 252.663 477.329 252.549 477.066 252.318C476.487 251.811 476.428 250.931 476.936 250.354L481.65 244.981C482.158 244.402 483.041 244.348 483.616 244.852C484.195 245.359 484.253 246.239 483.746 246.817L479.032 252.188C478.757 252.502 478.371 252.663 477.984 252.663Z" fill="#305D8A"/>
<path d="M509.339 247.275C509.044 247.275 508.746 247.181 508.494 246.988L500.83 241.128C500.219 240.66 500.102 239.788 500.57 239.177C501.037 238.567 501.916 238.451 502.523 238.917L510.187 244.778C510.798 245.246 510.915 246.118 510.446 246.728C510.173 247.087 509.758 247.275 509.339 247.275Z" fill="#305D8A"/>
<path d="M500.29 251.272C499.712 251.272 499.172 250.91 498.973 250.333L498.177 248.02C497.927 247.292 498.314 246.5 499.041 246.251C499.771 246 500.562 246.389 500.811 247.114L501.607 249.428C501.857 250.155 501.471 250.947 500.743 251.196C500.593 251.248 500.44 251.272 500.29 251.272Z" fill="#305D8A"/>
<path d="M492.704 234.378C492.095 234.378 491.534 233.974 491.363 233.358L489.417 226.359C489.211 225.618 489.645 224.851 490.387 224.645C491.129 224.441 491.896 224.873 492.103 225.614L494.049 232.613C494.255 233.354 493.821 234.121 493.079 234.327C492.953 234.361 492.828 234.378 492.704 234.378Z" fill="#305D8A"/>
<path d="M500.987 228.294C500.778 228.294 500.565 228.247 500.365 228.148C499.677 227.804 499.398 226.968 499.742 226.28L501.136 223.496C501.48 222.808 502.318 222.531 503.006 222.873C503.695 223.217 503.973 224.053 503.629 224.741L502.235 227.525C501.99 228.013 501.499 228.294 500.987 228.294Z" fill="#305D8A"/>
<path d="M506.555 234.378C505.929 234.378 505.36 233.953 505.204 233.32C505.019 232.574 505.474 231.82 506.222 231.635L513.886 229.74C514.632 229.559 515.388 230.01 515.573 230.756C515.758 231.503 515.303 232.257 514.556 232.442L506.891 234.337C506.778 234.364 506.666 234.378 506.555 234.378Z" fill="#305D8A"/>
<path d="M511.88 238.306C511.84 238.306 511.799 238.305 511.758 238.3L509.204 238.082C508.438 238.016 507.869 237.342 507.936 236.576C508.001 235.812 508.668 235.213 509.443 235.308L511.998 235.527C512.764 235.592 513.332 236.267 513.266 237.033C513.204 237.759 512.595 238.306 511.88 238.306Z" fill="#305D8A"/>
<path d="M443.845 201.851C443.753 201.851 443.663 201.843 443.57 201.824C442.816 201.673 442.326 200.94 442.477 200.186L443.871 193.226C444.022 192.472 444.751 191.977 445.51 192.135C446.264 192.285 446.754 193.018 446.603 193.773L445.21 200.733C445.078 201.395 444.495 201.851 443.845 201.851Z" fill="#305D8A"/>
<path d="M437.929 201.25C437.635 201.25 437.339 201.157 437.088 200.966L433.709 198.402C433.095 197.937 432.975 197.064 433.442 196.452C433.906 195.838 434.782 195.721 435.393 196.186L438.772 198.75C439.386 199.215 439.505 200.087 439.039 200.699C438.765 201.06 438.349 201.25 437.929 201.25Z" fill="#305D8A"/>
<path d="M429.507 232.466C428.882 232.466 428.313 232.043 428.156 231.41C427.971 230.664 428.426 229.908 429.172 229.723L437.597 227.635C438.343 227.455 439.099 227.904 439.286 228.65C439.471 229.396 439.016 230.152 438.27 230.337L429.845 232.425C429.731 232.452 429.618 232.466 429.507 232.466Z" fill="#305D8A"/>
<path d="M443.845 220.056C443.7 220.056 443.551 220.033 443.406 219.985L437.494 218.02C436.763 217.776 436.369 216.988 436.611 216.259C436.853 215.529 437.644 215.139 438.373 215.377L444.284 217.343C445.016 217.586 445.41 218.374 445.168 219.103C444.973 219.687 444.429 220.056 443.845 220.056Z" fill="#305D8A"/>
<path d="M449.239 210.434C449.155 210.434 449.069 210.427 448.983 210.41C448.226 210.27 447.727 209.543 447.867 208.787L448.964 202.888C449.104 202.132 449.832 201.628 450.589 201.773C451.346 201.913 451.845 202.64 451.704 203.396L450.608 209.296C450.483 209.966 449.898 210.434 449.239 210.434Z" fill="#305D8A"/>
<path d="M460.34 211.362C460.082 211.362 459.819 211.29 459.587 211.139C458.939 210.723 458.753 209.861 459.171 209.215L463.585 202.387C464.002 201.74 464.867 201.555 465.51 201.973C466.158 202.388 466.343 203.25 465.925 203.896L461.512 210.724C461.245 211.138 460.798 211.362 460.34 211.362Z" fill="#305D8A"/>
<path d="M471.72 219.072C471.663 219.072 471.605 219.069 471.546 219.061L463.649 218.078C462.886 217.983 462.344 217.288 462.439 216.524C462.534 215.762 463.219 215.225 463.994 215.316L471.892 216.298C472.655 216.394 473.196 217.088 473.101 217.852C473.014 218.557 472.412 219.072 471.72 219.072Z" fill="#305D8A"/>
<path d="M430.412 224.015C430.294 224.015 430.173 224.001 430.053 223.969L422.583 221.989C421.84 221.792 421.397 221.029 421.594 220.286C421.791 219.543 422.558 219.102 423.299 219.297L430.769 221.278C431.512 221.475 431.955 222.238 431.758 222.981C431.592 223.603 431.029 224.015 430.412 224.015Z" fill="#305D8A"/>
<path d="M426.653 214.609C425.979 214.609 425.385 214.118 425.278 213.43C425.159 212.67 425.68 211.959 426.441 211.841L429.273 211.402C430.041 211.287 430.747 211.804 430.864 212.564C430.983 213.324 430.461 214.035 429.7 214.153L426.869 214.593C426.796 214.603 426.724 214.609 426.653 214.609Z" fill="#305D8A"/>
<path d="M453.589 223.025C453.435 223.025 453.279 222.999 453.126 222.946C452.4 222.69 452.018 221.895 452.275 221.17L453.668 217.219C453.923 216.493 454.723 216.116 455.445 216.368C456.172 216.623 456.553 217.418 456.297 218.143L454.903 222.095C454.702 222.667 454.163 223.025 453.589 223.025Z" fill="#305D8A"/>
<path d="M435.493 208.115C435.142 208.115 434.79 207.983 434.519 207.719L430.841 204.139C430.29 203.603 430.279 202.721 430.817 202.171C431.355 201.62 432.237 201.612 432.787 202.146L436.466 205.727C437.017 206.263 437.027 207.145 436.49 207.695C436.218 207.975 435.855 208.115 435.493 208.115Z" fill="#305D8A"/>
<path d="M446.873 228.294C446.7 228.294 446.524 228.263 446.354 228.195L444.032 227.267C443.318 226.98 442.971 226.17 443.257 225.456C443.544 224.742 444.356 224.397 445.069 224.681L447.391 225.61C448.105 225.897 448.453 226.707 448.167 227.42C447.948 227.964 447.425 228.294 446.873 228.294Z" fill="#305D8A"/>
<path d="M431.804 261.458C431.384 261.458 430.968 261.269 430.694 260.909L425.565 254.181C425.099 253.569 425.218 252.696 425.83 252.23C426.443 251.764 427.316 251.882 427.783 252.496L432.912 259.223C433.377 259.835 433.259 260.708 432.646 261.174C432.395 261.366 432.098 261.458 431.804 261.458Z" fill="#305D8A"/>
<path d="M424.322 260.276C423.993 260.276 423.662 260.16 423.397 259.925L420.939 257.747C420.363 257.237 420.311 256.358 420.822 255.782C421.332 255.207 422.215 255.154 422.789 255.664L425.247 257.842C425.823 258.352 425.875 259.231 425.365 259.808C425.09 260.118 424.706 260.276 424.322 260.276Z" fill="#305D8A"/>
<path d="M420.39 269.349C419.831 269.349 419.305 269.011 419.09 268.459C418.812 267.743 419.169 266.937 419.886 266.658L426.176 264.222C426.889 263.946 427.699 264.3 427.979 265.017C428.257 265.734 427.9 266.54 427.183 266.818L420.893 269.254C420.729 269.318 420.557 269.349 420.39 269.349Z" fill="#305D8A"/>
<path d="M424.322 275.397C424.019 275.397 423.714 275.299 423.458 275.095C422.855 274.618 422.753 273.743 423.232 273.14L425.573 270.193C426.051 269.591 426.927 269.488 427.53 269.968C428.133 270.445 428.234 271.32 427.756 271.922L425.415 274.87C425.14 275.216 424.733 275.397 424.322 275.397Z" fill="#305D8A"/>
<path d="M430.412 276.788C430.318 276.788 430.224 276.778 430.129 276.759C429.375 276.603 428.89 275.866 429.046 275.115L430.439 268.387C430.594 267.633 431.33 267.152 432.086 267.305C432.84 267.461 433.324 268.198 433.169 268.95L431.775 275.677C431.64 276.335 431.058 276.788 430.412 276.788Z" fill="#305D8A"/>
<path d="M478.924 234.378C478.774 234.378 478.623 234.355 478.473 234.303C477.745 234.054 477.356 233.264 477.605 232.536L480.392 224.377C480.64 223.65 481.433 223.259 482.162 223.51C482.89 223.758 483.279 224.548 483.03 225.277L480.242 233.435C480.045 234.014 479.503 234.378 478.924 234.378Z" fill="#305D8A"/>
<path d="M473.738 227.356C473.679 227.356 473.621 227.352 473.561 227.345C472.798 227.249 472.258 226.551 472.354 225.788L472.78 222.434C472.878 221.671 473.567 221.145 474.338 221.228C475.101 221.324 475.641 222.022 475.545 222.784L475.119 226.139C475.029 226.842 474.429 227.356 473.738 227.356Z" fill="#305D8A"/>
<path d="M449.239 238.306C448.964 238.306 448.688 238.226 448.444 238.057L441.413 233.173C440.782 232.734 440.625 231.867 441.065 231.235C441.503 230.603 442.37 230.446 443.005 230.887L450.036 235.771C450.668 236.21 450.825 237.078 450.385 237.709C450.114 238.098 449.68 238.306 449.239 238.306Z" fill="#305D8A"/>
<path d="M460.549 226.904C460.404 226.904 460.255 226.881 460.108 226.832C459.379 226.59 458.984 225.801 459.228 225.072L460.621 220.896C460.865 220.167 461.649 219.77 462.384 220.016C463.113 220.258 463.507 221.047 463.264 221.777L461.87 225.953C461.676 226.536 461.133 226.904 460.549 226.904Z" fill="#305D8A"/>
<path d="M460.34 235.873C459.95 235.873 459.562 235.709 459.286 235.392L457.173 232.948C456.669 232.367 456.735 231.487 457.315 230.984C457.897 230.483 458.776 230.545 459.282 231.127L461.395 233.57C461.898 234.152 461.834 235.031 461.253 235.534C460.988 235.761 460.665 235.873 460.34 235.873Z" fill="#305D8A"/>
<path d="M465.63 239.697C465.573 239.697 465.514 239.692 465.454 239.686C464.691 239.591 464.151 238.895 464.246 238.131L465.153 230.907C465.248 230.147 465.929 229.616 466.71 229.7C467.473 229.795 468.013 230.491 467.918 231.255L467.011 238.479C466.922 239.181 466.322 239.697 465.63 239.697Z" fill="#305D8A"/>
<path d="M487.728 242.443C487.214 242.443 486.72 242.159 486.477 241.668C486.136 240.979 486.419 240.144 487.109 239.803L492.683 237.052C493.377 236.71 494.211 236.993 494.55 237.682C494.891 238.371 494.608 239.206 493.919 239.547L488.344 242.298C488.146 242.396 487.935 242.443 487.728 242.443Z" fill="#305D8A"/>
<path d="M495.384 246.406H491.204C490.433 246.406 489.81 245.783 489.81 245.013C489.81 244.244 490.433 243.621 491.204 243.621H495.384C496.155 243.621 496.777 244.244 496.777 245.013C496.777 245.783 496.155 246.406 495.384 246.406Z" fill="#305D8A"/>
<path d="M438.973 257.078C438.67 257.078 438.366 256.98 438.109 256.778L432.534 252.37C431.932 251.893 431.83 251.018 432.307 250.414C432.783 249.812 433.657 249.709 434.266 250.187L439.84 254.595C440.442 255.071 440.544 255.947 440.067 256.551C439.792 256.897 439.383 257.078 438.973 257.078Z" fill="#305D8A"/>
<path d="M437.929 248.839C437.846 248.839 437.763 248.832 437.678 248.817L435.693 248.456C434.936 248.318 434.433 247.594 434.57 246.838C434.707 246.081 435.43 245.585 436.191 245.716L438.176 246.076C438.933 246.215 439.436 246.94 439.299 247.695C439.177 248.369 438.59 248.839 437.929 248.839Z" fill="#305D8A"/>
<path d="M449.796 248.491C449.495 248.491 449.191 248.395 448.935 248.194L443.678 244.067C443.074 243.593 442.968 242.717 443.445 242.112C443.919 241.509 444.794 241.4 445.401 241.879L450.658 246.006C451.262 246.48 451.368 247.355 450.892 247.96C450.617 248.31 450.209 248.491 449.796 248.491Z" fill="#305D8A"/>
<path d="M457.139 248.943C456.67 248.943 456.215 248.708 455.951 248.283L453.798 244.796C453.395 244.141 453.598 243.283 454.253 242.879C454.908 242.476 455.766 242.681 456.171 243.333L458.324 246.82C458.727 247.475 458.524 248.333 457.87 248.737C457.641 248.876 457.388 248.943 457.139 248.943Z" fill="#305D8A"/>
<path d="M480.351 265.872C480.013 265.872 479.676 265.751 479.409 265.507C478.841 264.986 478.803 264.107 479.323 263.54L483.371 259.131C483.89 258.564 484.773 258.527 485.339 259.046C485.907 259.566 485.945 260.446 485.425 261.013L481.378 265.421C481.103 265.721 480.728 265.872 480.351 265.872Z" fill="#305D8A"/>
<path d="M487.728 268.132C487.135 268.132 486.585 267.751 486.399 267.154C486.169 266.422 486.579 265.64 487.313 265.412L490.1 264.541C490.832 264.308 491.615 264.72 491.845 265.455C492.075 266.187 491.665 266.969 490.93 267.198L488.143 268.068C488.006 268.111 487.866 268.132 487.728 268.132Z" fill="#305D8A"/>
<path d="M491.73 259.198C491.041 259.198 490.445 258.69 490.35 257.991C490.248 257.229 490.784 256.528 491.547 256.427L499.7 255.337C500.471 255.244 501.164 255.772 501.266 256.533C501.368 257.295 500.832 257.995 500.07 258.097L491.917 259.186C491.854 259.194 491.792 259.198 491.73 259.198Z" fill="#305D8A"/>
<path d="M496.985 265.872C496.446 265.872 495.933 265.559 495.706 265.033C495.401 264.327 495.726 263.507 496.433 263.203L498.317 262.39C499.026 262.086 499.846 262.412 500.149 263.116C500.454 263.821 500.129 264.641 499.423 264.945L497.538 265.758C497.358 265.836 497.17 265.872 496.985 265.872Z" fill="#305D8A"/>
<path d="M435.493 281.203C435.089 281.203 434.688 281.029 434.413 280.692C433.926 280.096 434.014 279.218 434.61 278.733L440.015 274.324C440.614 273.838 441.49 273.926 441.976 274.521C442.464 275.116 442.375 275.995 441.779 276.48L436.374 280.888C436.114 281.099 435.802 281.203 435.493 281.203Z" fill="#305D8A"/>
<path d="M449.239 270.983C449.161 270.983 449.081 270.976 449.002 270.962L443.597 270.035C442.837 269.906 442.328 269.186 442.459 268.429C442.588 267.671 443.308 267.164 444.068 267.292L449.473 268.219C450.232 268.348 450.741 269.069 450.61 269.826C450.495 270.504 449.906 270.983 449.239 270.983Z" fill="#305D8A"/>
<path d="M447.151 280.264C446.699 280.264 446.255 280.045 445.987 279.64C445.563 278.998 445.738 278.135 446.381 277.711L451.647 274.231C452.288 273.805 453.152 273.981 453.578 274.624C454.003 275.266 453.827 276.128 453.185 276.553L447.919 280.033C447.682 280.189 447.415 280.264 447.151 280.264Z" fill="#305D8A"/>
<path d="M460.34 278.978C460.169 278.978 459.996 278.946 459.827 278.88C459.111 278.597 458.762 277.788 459.045 277.073L461.251 271.506C461.535 270.79 462.349 270.442 463.059 270.724C463.775 271.007 464.125 271.816 463.842 272.53L461.636 278.099C461.42 278.645 460.894 278.978 460.34 278.978Z" fill="#305D8A"/>
<path d="M468.971 281.203C468.443 281.203 467.937 280.903 467.702 280.391L466.477 277.723C466.156 277.024 466.464 276.198 467.163 275.877C467.874 275.558 468.693 275.864 469.012 276.562L470.237 279.23C470.558 279.929 470.25 280.756 469.551 281.076C469.362 281.162 469.164 281.203 468.971 281.203Z" fill="#305D8A"/>
<path d="M454.285 260.276C454.15 260.276 454.013 260.257 453.876 260.215L446.751 258.036C446.016 257.812 445.601 257.033 445.827 256.298C446.052 255.563 446.828 255.146 447.568 255.375L454.693 257.553C455.428 257.777 455.843 258.556 455.617 259.292C455.433 259.891 454.883 260.276 454.285 260.276Z" fill="#305D8A"/>
<path d="M471.72 267.715C471.533 267.715 471.343 267.677 471.161 267.598C470.456 267.288 470.136 266.467 470.445 265.763L471.606 263.123C471.916 262.419 472.734 262.102 473.443 262.408C474.147 262.718 474.467 263.539 474.158 264.243L472.998 266.883C472.768 267.405 472.256 267.715 471.72 267.715Z" fill="#305D8A"/>
<path d="M484.701 277.135C484.606 277.135 484.509 277.126 484.412 277.106L479.999 276.177C479.247 276.018 478.763 275.28 478.923 274.528C479.082 273.777 479.826 273.293 480.573 273.453L484.987 274.381C485.739 274.541 486.222 275.279 486.063 276.03C485.924 276.686 485.346 277.135 484.701 277.135Z" fill="#305D8A"/>
<path d="M507.947 303.45H425.731C424.961 303.45 424.337 302.828 424.337 302.058C424.337 301.289 424.961 300.666 425.731 300.666H507.947C508.717 300.666 509.34 301.289 509.34 302.058C509.34 302.828 508.717 303.45 507.947 303.45Z" fill="#305D8A"/>
<path d="M140.985 323.3C140.985 312.767 132.467 304.228 121.939 304.163V301.607C121.939 297.249 118.401 293.716 114.038 293.716H82.4615C78.0986 293.716 74.5604 297.249 74.5604 301.607V344.288C74.5604 348.646 78.0986 352.179 82.4615 352.179H114.038C118.401 352.179 121.939 348.646 121.939 344.288V342.437C132.467 342.372 140.985 333.832 140.985 323.3V323.3ZM121.94 334.085V312.514C127.851 312.578 132.624 317.38 132.624 323.299C132.624 329.219 127.851 334.021 121.94 334.085Z" fill="#EAE8E1"/>
<path d="M114.039 353.577H82.4617C77.3367 353.577 73.1672 349.413 73.1672 344.294V301.613C73.1672 296.494 77.337 292.33 82.4617 292.33H114.039C119.164 292.33 123.333 296.494 123.333 301.613V302.831C133.954 303.611 142.378 312.521 142.378 323.306C142.378 334.09 133.954 343 123.333 343.78V344.294C123.333 349.413 119.164 353.577 114.039 353.577ZM82.4617 295.114C78.8731 295.114 75.9541 298.031 75.9541 301.614V344.295C75.9541 347.878 78.8731 350.794 82.4617 350.794H114.039C117.627 350.794 120.546 347.878 120.546 344.295V342.443C120.546 341.678 121.165 341.057 121.931 341.051C131.668 340.991 139.591 333.031 139.591 323.306C139.591 313.581 131.668 305.621 121.931 305.561C121.165 305.556 120.546 304.934 120.546 304.169V301.614C120.546 298.03 117.627 295.114 114.039 295.114H82.4617ZM121.939 335.484C121.572 335.484 121.221 335.34 120.96 335.082C120.694 334.82 120.546 334.465 120.546 334.092V312.522C120.546 312.149 120.694 311.793 120.96 311.532C121.225 311.269 121.599 311.104 121.954 311.13C128.606 311.202 134.017 316.664 134.017 323.307C134.017 329.95 128.606 335.412 121.954 335.483C121.949 335.484 121.945 335.484 121.939 335.484ZM123.333 314.035V332.579C127.798 331.85 131.23 327.953 131.23 323.307C131.23 318.661 127.798 314.763 123.333 314.035Z" fill="#305D8A"/>
<g opacity="0.2">
<path opacity="0.2" d="M121.942 304.18V301.625C121.942 297.267 118.404 293.734 114.041 293.734H103.826V352.197H114.041C118.404 352.197 121.942 348.664 121.942 344.306V342.455C132.469 342.389 140.987 333.85 140.987 323.318C140.987 312.785 132.469 304.246 121.942 304.181V304.18ZM121.942 334.102V312.532C127.853 312.596 132.626 317.397 132.626 323.317C132.626 329.237 127.853 334.038 121.942 334.102Z" fill="#9DB6C9"/>
</g>
<path d="M113.579 300.669H82.9222C82.1521 300.669 81.5288 300.047 81.5288 299.277C81.5288 298.508 82.1521 297.885 82.9222 297.885H113.579C114.349 297.885 114.973 298.508 114.973 299.277C114.973 300.047 114.349 300.669 113.579 300.669Z" fill="#305D8A"/>
<path d="M173.505 254.697C174.624 254.927 175.475 255.379 176.058 256.054C176.64 256.713 176.932 257.58 176.932 258.653C176.932 260.048 176.433 261.122 175.437 261.873C174.455 262.624 173.006 263 171.09 263H163.96V246.9H170.653C172.37 246.9 173.712 247.253 174.678 247.958C175.644 248.663 176.127 249.683 176.127 251.017C176.127 251.922 175.897 252.688 175.437 253.317C174.977 253.93 174.333 254.39 173.505 254.697ZM165.639 254.191H170.561C171.803 254.191 172.753 253.938 173.413 253.432C174.087 252.926 174.425 252.19 174.425 251.224C174.425 250.258 174.087 249.522 173.413 249.016C172.753 248.51 171.803 248.257 170.561 248.257H165.639V254.191ZM171.09 261.643C173.865 261.643 175.253 260.608 175.253 258.538C175.253 256.514 173.865 255.502 171.09 255.502H165.639V261.643H171.09ZM185.856 263.115C184.66 263.115 183.587 262.854 182.636 262.333C181.701 261.812 180.965 261.083 180.428 260.148C179.891 259.197 179.623 258.132 179.623 256.951C179.623 255.77 179.891 254.712 180.428 253.777C180.965 252.842 181.701 252.113 182.636 251.592C183.587 251.071 184.66 250.81 185.856 250.81C186.899 250.81 187.826 251.017 188.639 251.431C189.467 251.83 190.119 252.42 190.594 253.202L189.375 254.03C188.976 253.432 188.47 252.987 187.857 252.696C187.244 252.389 186.577 252.236 185.856 252.236C184.982 252.236 184.192 252.435 183.487 252.834C182.797 253.217 182.253 253.769 181.854 254.49C181.471 255.211 181.279 256.031 181.279 256.951C181.279 257.886 181.471 258.714 181.854 259.435C182.253 260.14 182.797 260.692 183.487 261.091C184.192 261.474 184.982 261.666 185.856 261.666C186.577 261.666 187.244 261.52 187.857 261.229C188.47 260.938 188.976 260.493 189.375 259.895L190.594 260.723C190.119 261.505 189.467 262.103 188.639 262.517C187.811 262.916 186.883 263.115 185.856 263.115ZM202.041 252.351H197.464V263H195.831V252.351H191.254V250.902H202.041V252.351ZM208.566 250.81C210.145 250.81 211.356 251.209 212.2 252.006C213.043 252.788 213.465 253.953 213.465 255.502V263H211.901V261.114C211.533 261.743 210.988 262.233 210.268 262.586C209.562 262.939 208.719 263.115 207.738 263.115C206.388 263.115 205.315 262.793 204.518 262.149C203.72 261.505 203.322 260.654 203.322 259.596C203.322 258.569 203.69 257.741 204.426 257.112C205.177 256.483 206.365 256.169 207.991 256.169H211.832V255.433C211.832 254.39 211.54 253.601 210.958 253.064C210.375 252.512 209.524 252.236 208.405 252.236C207.638 252.236 206.902 252.366 206.197 252.627C205.491 252.872 204.886 253.217 204.38 253.662L203.644 252.443C204.257 251.922 204.993 251.523 205.852 251.247C206.71 250.956 207.615 250.81 208.566 250.81ZM207.991 261.827C208.911 261.827 209.7 261.62 210.36 261.206C211.019 260.777 211.51 260.163 211.832 259.366V257.388H208.037C205.967 257.388 204.932 258.109 204.932 259.55C204.932 260.255 205.2 260.815 205.737 261.229C206.273 261.628 207.025 261.827 207.991 261.827ZM225.517 256.744C227.157 257.127 227.978 258.116 227.978 259.711C227.978 260.769 227.587 261.582 226.805 262.149C226.023 262.716 224.857 263 223.309 263H217.812V250.902H223.148C224.528 250.902 225.609 251.17 226.391 251.707C227.173 252.244 227.564 253.01 227.564 254.007C227.564 254.666 227.38 255.234 227.012 255.709C226.659 256.169 226.161 256.514 225.517 256.744ZM219.399 256.284H223.033C223.968 256.284 224.681 256.108 225.172 255.755C225.678 255.402 225.931 254.889 225.931 254.214C225.931 253.539 225.678 253.033 225.172 252.696C224.681 252.359 223.968 252.19 223.033 252.19H219.399V256.284ZM223.24 261.712C224.282 261.712 225.064 261.543 225.586 261.206C226.107 260.869 226.368 260.34 226.368 259.619C226.368 258.898 226.13 258.369 225.655 258.032C225.179 257.679 224.428 257.503 223.401 257.503H219.399V261.712H223.24ZM231.805 250.902H233.438V260.516L241.511 250.902H242.96V263H241.327V253.386L233.277 263H231.805V250.902ZM256.15 252.351H251.573V263H249.94V252.351H245.363V250.902H256.15V252.351ZM263.709 255.18C265.227 255.195 266.377 255.533 267.159 256.192C267.956 256.851 268.355 257.802 268.355 259.044C268.355 260.332 267.926 261.321 267.067 262.011C266.224 262.701 264.997 263.038 263.387 263.023L258.511 263V250.902H260.144V255.134L263.709 255.18ZM263.295 261.781C264.414 261.796 265.258 261.574 265.825 261.114C266.408 260.639 266.699 259.949 266.699 259.044C266.699 258.155 266.415 257.495 265.848 257.066C265.281 256.637 264.43 256.414 263.295 256.399L260.144 256.353V261.735L263.295 261.781ZM281.883 257.618H279.123V263H277.49V250.902H279.123V256.215H281.906L286.161 250.902H287.932L283.171 256.767L288.277 263H286.345L281.883 257.618ZM294.793 250.81C296.372 250.81 297.584 251.209 298.427 252.006C299.27 252.788 299.692 253.953 299.692 255.502V263H298.128V261.114C297.76 261.743 297.216 262.233 296.495 262.586C295.79 262.939 294.946 263.115 293.965 263.115C292.616 263.115 291.542 262.793 290.745 262.149C289.948 261.505 289.549 260.654 289.549 259.596C289.549 258.569 289.917 257.741 290.653 257.112C291.404 256.483 292.593 256.169 294.218 256.169H298.059V255.433C298.059 254.39 297.768 253.601 297.185 253.064C296.602 252.512 295.751 252.236 294.632 252.236C293.865 252.236 293.129 252.366 292.424 252.627C291.719 252.872 291.113 253.217 290.607 253.662L289.871 252.443C290.484 251.922 291.22 251.523 292.079 251.247C292.938 250.956 293.842 250.81 294.793 250.81ZM294.218 261.827C295.138 261.827 295.928 261.62 296.587 261.206C297.246 260.777 297.737 260.163 298.059 259.366V257.388H294.264C292.194 257.388 291.159 258.109 291.159 259.55C291.159 260.255 291.427 260.815 291.964 261.229C292.501 261.628 293.252 261.827 294.218 261.827ZM310.272 250.81C311.407 250.81 312.434 251.071 313.354 251.592C314.274 252.098 314.995 252.819 315.516 253.754C316.038 254.689 316.298 255.755 316.298 256.951C316.298 258.162 316.038 259.236 315.516 260.171C314.995 261.106 314.274 261.835 313.354 262.356C312.45 262.862 311.422 263.115 310.272 263.115C309.291 263.115 308.402 262.916 307.604 262.517C306.822 262.103 306.178 261.505 305.672 260.723V267.462H304.039V250.902H305.603V253.294C306.094 252.497 306.738 251.883 307.535 251.454C308.348 251.025 309.26 250.81 310.272 250.81ZM310.157 261.666C311.001 261.666 311.767 261.474 312.457 261.091C313.147 260.692 313.684 260.133 314.067 259.412C314.466 258.691 314.665 257.871 314.665 256.951C314.665 256.031 314.466 255.218 314.067 254.513C313.684 253.792 313.147 253.233 312.457 252.834C311.767 252.435 311.001 252.236 310.157 252.236C309.299 252.236 308.524 252.435 307.834 252.834C307.16 253.233 306.623 253.792 306.224 254.513C305.841 255.218 305.649 256.031 305.649 256.951C305.649 257.871 305.841 258.691 306.224 259.412C306.623 260.133 307.16 260.692 307.834 261.091C308.524 261.474 309.299 261.666 310.157 261.666ZM327.868 252.351H323.291V263H321.658V252.351H317.081V250.902H327.868V252.351ZM330.229 250.902H331.862V260.516L339.935 250.902H341.384V263H339.751V253.386L331.701 263H330.229V250.902ZM346.064 250.902H347.697V256.261H355.31V250.902H356.943V263H355.31V257.664H347.697V263H346.064V250.902ZM365.977 257.618H363.217V263H361.584V250.902H363.217V256.215H366L370.255 250.902H372.026L367.265 256.767L372.371 263H370.439L365.977 257.618ZM384.533 250.902L378.484 264.449C377.994 265.584 377.426 266.389 376.782 266.864C376.138 267.339 375.364 267.577 374.459 267.577C373.877 267.577 373.332 267.485 372.826 267.301C372.32 267.117 371.883 266.841 371.515 266.473L372.274 265.254C372.888 265.867 373.624 266.174 374.482 266.174C375.034 266.174 375.502 266.021 375.885 265.714C376.284 265.407 376.652 264.886 376.989 264.15L377.518 262.977L372.113 250.902H373.815L378.369 261.183L382.923 250.902H384.533Z" fill="black"/>
</svg>
